<svg width="24" height="24" viewBox="0 0 24 24" fill="none" xmlns="http://www.w3.org/2000/svg">
<path fill-rule="evenodd" clip-rule="evenodd" d="M12 3.6C13.3847 3.6 14.8084 3.60297 16.0936 3.78243C17.4106 3.96634 18.3101 4.30371 18.8223 4.76629C19.433 5.31794 19.8643 6.24581 20.1161 7.59517C20.3652 8.93056 20.4 10.4559 20.4 12C20.4 13.5441 20.3652 15.0694 20.1161 16.4048C19.8643 17.7542 19.433 18.6821 18.8223 19.2337C18.3101 19.6963 17.4106 20.0337 16.0936 20.2176C14.8084 20.397 13.3847 20.4 12 20.4C10.6153 20.4 9.19165 20.397 7.90644 20.2176C6.58939 20.0337 5.68987 19.6963 5.17775 19.2337C4.56702 18.6821 4.13566 17.7542 3.88392 16.4048C3.63478 15.0694 3.6 13.5441 3.6 12C3.6 10.4559 3.63478 8.93056 3.88392 7.59517C4.13566 6.24581 4.56702 5.31794 5.17775 4.76629C5.68987 4.30371 6.58939 3.96634 7.90644 3.78243C9.19165 3.60297 10.6153 3.6 12 3.6ZM22 12C22 15.0869 21.8723 18.6348 19.8947 20.4211C18.148 21.9988 14.7266 22 12 22C9.27337 22 5.85201 21.9988 4.10526 20.4211C2.12772 18.6348 2 15.0869 2 12C2 8.91311 2.12772 5.3652 4.10526 3.57895C5.85201 2.00116 9.27337 2 12 2C14.7266 2 18.148 2.00116 19.8947 3.57895C21.8723 5.3652 22 8.91311 22 12ZM13.9105 11.4119L14.3828 10.3878H10.2991C10.3505 10.1761 10.4142 9.9789 10.4901 9.79616C10.7287 9.22609 11.0552 8.79853 11.4695 8.51349C11.8838 8.22846 12.3561 8.08594 12.8864 8.08594C13.1747 8.08594 13.4448 8.12571 13.6967 8.20526C13.9486 8.28149 14.1839 8.38423 14.4027 8.51349C14.6214 8.64276 14.8236 8.78693 15.0092 8.94602L15.5959 7.68821C15.2346 7.3634 14.8253 7.11482 14.3679 6.94247C13.9105 6.76681 13.4167 6.67898 12.8864 6.67898C12.0545 6.67898 11.317 6.88944 10.674 7.31037C10.0343 7.7313 9.5322 8.33286 9.16761 9.11506C8.9871 9.50233 8.85128 9.92657 8.76014 10.3878H7.74574L7.37287 11.4119H8.63437C8.62528 11.5755 8.62074 11.7429 8.62074 11.9141C8.62074 12.0817 8.62513 12.2458 8.6339 12.4062H7.74574L7.37287 13.4403H8.76089C8.85202 13.8993 8.98759 14.3219 9.16761 14.7081C9.5322 15.487 10.0343 16.0869 10.674 16.5078C11.317 16.9287 12.0545 17.1392 12.8864 17.1392C13.3968 17.1392 13.884 17.058 14.348 16.8956C14.812 16.7332 15.2197 16.4929 15.571 16.1747L14.9695 14.9219C14.8004 15.0611 14.6098 15.1937 14.3977 15.3196C14.1889 15.4422 13.9569 15.5417 13.7017 15.6179C13.4498 15.6941 13.178 15.7322 12.8864 15.7322C12.3561 15.7322 11.8838 15.5914 11.4695 15.3097C11.0552 15.0246 10.7287 14.5987 10.4901 14.032C10.4142 13.8492 10.3505 13.652 10.2991 13.4403H13.0107L13.4929 12.4062H10.1513C10.1418 12.2478 10.1371 12.0837 10.1371 11.9141C10.1371 11.7408 10.142 11.5735 10.1519 11.4119H13.9105Z" fill="white"/>
</svg>
